<svg width="24" height="24" viewBox="0 0 24 24" fill="none" xmlns="http://www.w3.org/2000/svg">
<g clip-path="url(#clip0)">
<path d="M11.4181 0.0138795C5.07968 0.315677 0.0778119 5.59432 0.0970401 11.9399C0.102895 13.8726 0.569481 15.6968 1.39256 17.3086L0.128838 23.4429C0.0604778 23.7747 0.359749 24.0652 0.689385 23.9872L6.70025 22.5631C8.24453 23.3323 9.97909 23.7767 11.8148 23.8047C18.2933 23.9036 23.6951 18.7596 23.8971 12.2836C24.1135 5.34171 18.3842 -0.317879 11.4181 0.0138795ZM18.5903 18.4934C16.83 20.2537 14.4895 21.2231 12 21.2231C10.5423 21.2231 9.14677 20.8961 7.85193 20.2511L7.01484 19.8341L3.32957 20.7073L4.1053 16.9416L3.69289 16.134C3.02071 14.8176 2.67988 13.394 2.67988 11.903C2.67988 9.4135 3.64933 7.07305 5.40966 5.31266C7.15426 3.56806 9.53294 2.58283 12.0002 2.58283C14.4896 2.58289 16.83 3.55233 18.5904 5.31261C20.3507 7.07294 21.3201 9.41339 21.3202 11.9028C21.3201 14.3701 20.3349 16.7488 18.5903 18.4934Z" fill="#04A004"/>
<path d="M17.7767 14.4844L15.4711 13.8224C15.168 13.7354 14.8416 13.8214 14.6207 14.0464L14.0569 14.6208C13.8192 14.8631 13.4584 14.9409 13.1438 14.8136C12.0531 14.3722 9.7588 12.3323 9.17288 11.3119C9.00384 11.0176 9.0318 10.6496 9.23935 10.381L9.73159 9.74422C9.92445 9.49471 9.96514 9.15962 9.8376 8.87119L8.86758 6.67728C8.63524 6.1518 7.96374 5.99884 7.52505 6.36986C6.88156 6.9141 6.11806 7.74115 6.02525 8.65739C5.86161 10.2728 6.5544 12.3092 9.1742 14.7543C12.2008 17.5791 14.6245 17.9523 16.2025 17.5701C17.0976 17.3533 17.8128 16.4841 18.2643 15.7725C18.572 15.2873 18.329 14.643 17.7767 14.4844Z" fill="#04A004"/>
</g>
<defs>
<clipPath id="clip0">
<rect width="24" height="24" fill="white"/>
</clipPath>
</defs>
</svg>
