<svg width="279" height="44" viewBox="0 0 279 44" fill="none" xmlns="http://www.w3.org/2000/svg">
<path fill-rule="evenodd" clip-rule="evenodd" d="M22.0524 0.0362555C11.1342 0.6772 2.4778 9.73445 2.4778 20.8135C2.4778 31.8926 11.1342 40.9498 22.0524 41.5907C21.6425 41.6148 21.2295 41.627 20.8135 41.627C9.31852 41.627 0 32.3085 0 20.8135C0 9.31852 9.31852 0 20.8135 0C21.2295 0 21.6425 0.0121994 22.0524 0.0362555Z" fill="#009C00"/>
<path fill-rule="evenodd" clip-rule="evenodd" d="M21.9698 0.0362555C32.888 0.6772 41.5444 9.73445 41.5444 20.8135C41.5444 31.8926 32.888 40.9498 21.9698 41.5907C22.3797 41.6148 22.7928 41.627 23.2087 41.627C34.7037 41.627 44.0222 32.3085 44.0222 20.8135C44.0222 9.31852 34.7037 0 23.2087 0C22.7928 0 22.3797 0.0121994 21.9698 0.0362555Z" fill="#009C00"/>
<path d="M15.9405 35.9281L6.35968 24.5302L15.9405 30.1465L38.1581 11.563L15.9405 35.9281Z" fill="#00B340"/>
<path d="M10.4067 17.3446H15.3623V28.9076L10.4067 26.0169V17.3446Z" fill="#0077B7"/>
<path d="M16.849 13.8757H21.8046V24.1998L16.849 28.4121V13.8757Z" fill="#0077B7"/>
<path d="M23.2913 10.4068H28.2469V18.9139L23.2913 23.0435V10.4068Z" fill="#0077B7"/>
<path d="M15.3623 21.8916C13.78 22.4002 12.1208 22.7374 10.4067 22.8815V17.3446H15.3623V21.8916Z" fill="#82B9D8"/>
<path d="M21.8046 18.5845C20.2881 19.7063 18.6249 20.6411 16.849 21.3548V13.8757H21.8046V18.5845Z" fill="#82B9D8"/>
<path d="M28.2469 11.1387C26.9768 13.5078 25.2927 15.6217 23.2913 17.3838V10.4068H28.2469V11.1387Z" fill="#82B9D8"/>
<path d="M59.0657 25.2551C55.361 25.2551 52.2656 24.0839 49.7796 21.7414C47.3179 19.3745 46.087 16.3365 46.087 12.6276C46.087 8.9186 47.3179 5.89287 49.7796 3.55036C52.2656 1.18345 55.361 0 59.0657 0C63.6235 0 67.0236 1.98869 69.2659 5.96607L64.8056 8.16217C64.2694 7.13732 63.4773 6.29548 62.4292 5.63665C61.4056 4.95342 60.2844 4.61181 59.0657 4.61181C56.8478 4.61181 55.0198 5.36824 53.5818 6.88111C52.1438 8.39398 51.4248 10.3095 51.4248 12.6276C51.4248 14.9457 52.1438 16.8612 53.5818 18.374C55.0198 19.8869 56.8478 20.6433 59.0657 20.6433C60.2844 20.6433 61.4056 20.3139 62.4292 19.6551C63.4773 18.9963 64.2694 18.1422 64.8056 17.093L69.2659 19.2525C66.9505 23.2542 63.5504 25.2551 59.0657 25.2551Z" fill="#009C00"/>
<path d="M77.1454 19.6185C77.9497 20.6189 79.0465 21.1192 80.4358 21.1192C81.825 21.1192 82.9218 20.6189 83.7261 19.6185C84.5548 18.618 84.9692 17.3736 84.9692 15.8851C84.9692 14.4943 84.5548 13.3108 83.7261 12.3348C82.9218 11.3343 81.825 10.8341 80.4358 10.8341C79.0465 10.8341 77.9497 11.3221 77.1454 12.2982C76.3411 13.2742 75.9389 14.4699 75.9389 15.8851C75.9389 17.3736 76.3411 18.618 77.1454 19.6185ZM80.4358 25.2551C77.5597 25.2551 75.2808 24.3157 73.5991 22.4368C71.9417 20.5335 71.113 18.1056 71.113 15.1531C71.113 10.9317 71.8686 7.77175 73.3797 5.67326C74.8909 3.57476 77.1941 2.3181 80.2895 1.90329C82.9462 1.51287 84.2745 1.01265 84.2745 0.402617H89.1004C89.1004 2.96473 86.6509 4.5508 81.7519 5.16083C78.0716 5.64885 75.9511 7.12512 75.3905 9.58963C76.8529 7.66195 78.8637 6.6981 81.4229 6.6981C83.8846 6.6981 85.8832 7.60094 87.4187 9.40662C88.9786 11.2123 89.7585 13.384 89.7585 15.9217C89.7585 18.5326 88.9054 20.7409 87.1993 22.5466C85.5176 24.3523 83.2631 25.2551 80.4358 25.2551Z" fill="#009C00"/>
<path d="M101.646 25.2551C98.916 25.2551 96.6615 24.4011 94.8823 22.693C93.1031 20.9849 92.2134 18.74 92.2134 15.9583C92.2134 13.3474 93.0665 11.1513 94.7726 9.37002C96.5031 7.58874 98.6967 6.6981 101.353 6.6981C103.986 6.6981 106.118 7.60094 107.751 9.40662C109.384 11.1879 110.201 13.5304 110.201 16.4341V17.459H97.0759C97.2221 18.6302 97.7461 19.6063 98.6479 20.3871C99.5498 21.168 100.72 21.5584 102.158 21.5584C102.938 21.5584 103.778 21.3998 104.68 21.0826C105.606 20.7653 106.338 20.3383 106.874 19.8015L108.921 22.8028C107.142 24.4377 104.717 25.2551 101.646 25.2551ZM105.704 14.3112C105.631 13.3108 105.229 12.408 104.498 11.6027C103.791 10.7975 102.743 10.3949 101.353 10.3949C100.037 10.3949 99.0135 10.7975 98.2823 11.6027C97.5511 12.3836 97.1246 13.2864 97.0028 14.3112H105.704Z" fill="#009C00"/>
<path d="M123.645 25.2551C121.427 25.2551 119.611 24.3523 118.198 22.5466V31.5506H113.555V7.13732H118.198V9.37002C119.587 7.58874 121.403 6.6981 123.645 6.6981C125.961 6.6981 127.837 7.52774 129.275 9.18701C130.738 10.8219 131.469 13.079 131.469 15.9583C131.469 18.8376 130.738 21.107 129.275 22.7662C127.837 24.4255 125.961 25.2551 123.645 25.2551ZM122.183 21.1192C123.523 21.1192 124.596 20.6433 125.4 19.6917C126.229 18.74 126.643 17.4956 126.643 15.9583C126.643 14.4455 126.229 13.2132 125.4 12.2616C124.596 11.3099 123.523 10.8341 122.183 10.8341C121.427 10.8341 120.672 11.0293 119.916 11.4197C119.16 11.8101 118.588 12.286 118.198 12.8472V19.1061C118.588 19.6673 119.16 20.1431 119.916 20.5335C120.696 20.9239 121.452 21.1192 122.183 21.1192Z" fill="#009C00"/>
<path d="M157.098 24.8159H150.882L144.777 15.8851L138.635 24.8159H132.456L141.304 12.2982L133.005 0.402617H139.183L144.777 8.74779L150.297 0.402617H156.549L148.25 12.2616L157.098 24.8159Z" fill="#009C00"/>
<path d="M174.279 22.5832C172.573 24.3645 170.307 25.2551 167.479 25.2551C164.652 25.2551 162.385 24.3645 160.679 22.5832C158.998 20.7775 158.157 18.5692 158.157 15.9583C158.157 13.3474 158.998 11.1513 160.679 9.37002C162.385 7.58874 164.652 6.6981 167.479 6.6981C170.307 6.6981 172.573 7.58874 174.279 9.37002C175.986 11.1513 176.839 13.3474 176.839 15.9583C176.839 18.5692 175.986 20.7775 174.279 22.5832ZM164.189 19.6551C164.993 20.6311 166.09 21.1192 167.479 21.1192C168.869 21.1192 169.965 20.6311 170.77 19.6551C171.598 18.6546 172.013 17.4224 172.013 15.9583C172.013 14.5187 171.598 13.3108 170.77 12.3348C169.965 11.3343 168.869 10.8341 167.479 10.8341C166.09 10.8341 164.993 11.3343 164.189 12.3348C163.385 13.3108 162.983 14.5187 162.983 15.9583C162.983 17.4224 163.385 18.6546 164.189 19.6551Z" fill="#009C00"/>
<path d="M178.638 25.2551V21.4486C179.369 21.4486 179.954 21.0215 180.393 20.1675C180.832 19.2891 181.185 17.8006 181.453 15.7021L182.587 7.13732H196.881V24.8159H192.238V11.2001H186.645L186.06 16.2511C185.694 19.3501 184.914 21.6316 183.72 23.0956C182.55 24.5353 180.856 25.2551 178.638 25.2551Z" fill="#009C00"/>
<path d="M199.846 29.3179V20.9361C200.382 20.8385 200.796 20.6677 201.089 20.4237C201.405 20.1553 201.698 19.6551 201.966 18.9231C202.259 18.1666 202.49 17.093 202.661 15.7021L203.794 7.13732H218.089V20.7531H220.027V29.3179H215.383V24.8159H204.525V29.3179H199.846ZM207.852 11.2001L207.304 15.9949C207.06 18.1178 206.378 19.7039 205.256 20.7531H213.446V11.2001H207.852Z" fill="#009C00"/>
<path d="M227.408 24.8159H222.948V7.13732H227.591V17.825L234.867 7.13732H239.546V24.8159H234.903V13.7256L227.408 24.8159Z" fill="#009C00"/>
<path d="M248.799 24.8159H244.156V7.13732H248.799V13.689H256.111V7.13732H260.754V24.8159H256.111V17.7518H248.799V24.8159Z" fill="#009C00"/>
<path d="M279 7.13732V11.2001H270.006V24.8159H265.363V7.13732H279Z" fill="#009C00"/>
<path d="M51.9505 41.5265H46.2572V40.27C47.8752 39.0702 48.9451 38.2174 49.4668 37.7118C49.996 37.1987 50.2607 36.7195 50.2607 36.2743C50.2607 35.9649 50.1397 35.7234 49.8977 35.5498C49.6558 35.3763 49.3685 35.2895 49.0358 35.2895C48.2419 35.2895 47.5652 35.58 47.0057 36.1611L46.087 35.0971C46.4424 34.6896 46.8772 34.3839 47.3913 34.1802C47.913 33.9689 48.4498 33.8632 49.0018 33.8632C49.8335 33.8632 50.5215 34.0821 51.0659 34.5198C51.6178 34.9574 51.8938 35.5423 51.8938 36.2743C51.8938 36.8931 51.6481 37.5005 51.1566 38.0967C50.6727 38.6853 49.9091 39.3569 48.8657 40.1115H51.9505V41.5265Z" fill="#0077B7"/>
<path d="M57.7982 41.085C57.3143 41.4699 56.7284 41.6623 56.0403 41.6623C55.3523 41.6623 54.7625 41.4699 54.2711 41.085C53.7872 40.6926 53.4394 40.2096 53.2277 39.6361C53.016 39.0626 52.9101 38.4363 52.9101 37.7571C52.9101 37.0779 53.016 36.4516 53.2277 35.8781C53.4394 35.3046 53.7872 34.8254 54.2711 34.4405C54.7625 34.0557 55.3523 33.8632 56.0403 33.8632C56.7284 33.8632 57.3143 34.0557 57.7982 34.4405C58.2821 34.8254 58.6299 35.3046 58.8416 35.8781C59.0609 36.4516 59.1705 37.0779 59.1705 37.7571C59.1705 38.4363 59.0609 39.0626 58.8416 39.6361C58.6299 40.2096 58.2821 40.6926 57.7982 41.085ZM54.9062 39.5569C55.1481 40.0097 55.5262 40.2361 56.0403 40.2361C56.5545 40.2361 56.9287 40.0097 57.1631 39.5569C57.4051 39.1041 57.526 38.5042 57.526 37.7571C57.526 37.01 57.4051 36.4139 57.1631 35.9686C56.9287 35.5159 56.5545 35.2895 56.0403 35.2895C55.5262 35.2895 55.1481 35.5159 54.9062 35.9686C54.6642 36.4139 54.5433 37.01 54.5433 37.7571C54.5433 38.5042 54.6642 39.1041 54.9062 39.5569Z" fill="#0077B7"/>
<path d="M62.6634 41.6623V40.4851C62.8902 40.4851 63.0717 40.353 63.2078 40.0889C63.3439 39.8172 63.4535 39.3569 63.5367 38.7079L63.8883 36.0592H68.3227V41.5265H66.8824V37.3157H65.1472L64.9657 38.8777C64.8523 39.8361 64.6103 40.5417 64.2399 40.9945C63.8769 41.4397 63.3514 41.6623 62.6634 41.6623Z" fill="#0077B7"/>
<path d="M72.3271 41.6623C71.4803 41.6623 70.7809 41.3982 70.229 40.8699C69.677 40.3417 69.4011 39.6474 69.4011 38.7872C69.4011 37.9797 69.6657 37.3006 70.195 36.7497C70.7318 36.1988 71.4123 35.9234 72.2364 35.9234C73.053 35.9234 73.7146 36.2026 74.2211 36.761C74.7277 37.3119 74.981 38.0363 74.981 38.9343V39.2513H70.9095C70.9548 39.6135 71.1174 39.9153 71.3971 40.1568C71.6769 40.3983 72.0398 40.519 72.4859 40.519C72.7279 40.519 72.9887 40.47 73.2685 40.3719C73.5558 40.2738 73.7826 40.1417 73.9489 39.9757L74.5841 40.9039C74.0321 41.4095 73.2798 41.6623 72.3271 41.6623ZM73.586 38.2778C73.5633 37.9684 73.4386 37.6892 73.2118 37.4402C72.9925 37.1911 72.6674 37.0666 72.2364 37.0666C71.8281 37.0666 71.5106 37.1911 71.2837 37.4402C71.0569 37.6816 70.9246 37.9609 70.8868 38.2778H73.586Z" fill="#0077B7"/>
<path d="M78.4825 41.5265H77.0308V37.3157H75.4997V36.0592H80.0136V37.3157H78.4825V41.5265Z" fill="#0077B7"/>
<path d="M83.3082 42.9188V40.3266C83.4746 40.2964 83.6031 40.2436 83.6938 40.1681C83.7921 40.0851 83.8829 39.9304 83.966 39.704C84.0568 39.4701 84.1286 39.1381 84.1815 38.7079L84.5331 36.0592H88.9676V40.27H89.5687V42.9188H88.1283V41.5265H84.7599V42.9188H83.3082ZM85.792 37.3157L85.6219 38.7985C85.5463 39.455 85.3345 39.9455 84.9867 40.27H87.5272V37.3157H85.792Z" fill="#0077B7"/>
<path d="M95.1249 40.836C94.5957 41.3869 93.8925 41.6623 93.0154 41.6623C92.1384 41.6623 91.4352 41.3869 90.906 40.836C90.3843 40.2776 90.1234 39.5946 90.1234 38.7872C90.1234 37.9797 90.3843 37.3006 90.906 36.7497C91.4352 36.1988 92.1384 35.9234 93.0154 35.9234C93.8925 35.9234 94.5957 36.1988 95.1249 36.7497C95.6542 37.3006 95.9188 37.9797 95.9188 38.7872C95.9188 39.5946 95.6542 40.2776 95.1249 40.836ZM91.9947 39.9304C92.2442 40.2323 92.5845 40.3832 93.0154 40.3832C93.4464 40.3832 93.7867 40.2323 94.0362 39.9304C94.2932 39.621 94.4218 39.24 94.4218 38.7872C94.4218 38.3419 94.2932 37.9684 94.0362 37.6666C93.7867 37.3572 93.4464 37.2025 93.0154 37.2025C92.5845 37.2025 92.2442 37.3572 91.9947 37.6666C91.7452 37.9684 91.6205 38.3419 91.6205 38.7872C91.6205 39.24 91.7452 39.621 91.9947 39.9304Z" fill="#0077B7"/>
<path d="M100.56 41.5265H96.9874V36.0592H100.458C100.987 36.0592 101.399 36.195 101.694 36.4667C101.989 36.7384 102.136 37.0704 102.136 37.4628C102.136 37.7797 102.049 38.0476 101.876 38.2665C101.702 38.4853 101.479 38.6325 101.206 38.7079C101.509 38.7759 101.758 38.9343 101.955 39.1834C102.152 39.4324 102.25 39.7191 102.25 40.0436C102.25 40.4738 102.099 40.8284 101.796 41.1077C101.501 41.3869 101.089 41.5265 100.56 41.5265ZM100.208 40.3493C100.382 40.3493 100.518 40.304 100.617 40.2134C100.722 40.1229 100.775 39.9984 100.775 39.8399C100.775 39.6965 100.722 39.5758 100.617 39.4777C100.518 39.3796 100.382 39.3305 100.208 39.3305H98.4278V40.3493H100.208ZM100.163 38.1533C100.314 38.1533 100.435 38.1118 100.526 38.0288C100.624 37.9382 100.673 37.8288 100.673 37.7005C100.673 37.5647 100.628 37.4553 100.537 37.3722C100.447 37.2817 100.322 37.2364 100.163 37.2364H98.4278V38.1533H100.163Z" fill="#0077B7"/>
<path d="M106.207 41.6623C105.36 41.6623 104.661 41.3982 104.109 40.8699C103.557 40.3417 103.281 39.6474 103.281 38.7872C103.281 37.9797 103.546 37.3006 104.075 36.7497C104.612 36.1988 105.292 35.9234 106.116 35.9234C106.933 35.9234 107.595 36.2026 108.101 36.761C108.608 37.3119 108.861 38.0363 108.861 38.9343V39.2513H104.79C104.835 39.6135 104.997 39.9153 105.277 40.1568C105.557 40.3983 105.92 40.519 106.366 40.519C106.608 40.519 106.869 40.47 107.149 40.3719C107.436 40.2738 107.663 40.1417 107.829 39.9757L108.464 40.9039C107.912 41.4095 107.16 41.6623 106.207 41.6623ZM107.466 38.2778C107.443 37.9684 107.319 37.6892 107.092 37.4402C106.873 37.1911 106.547 37.0666 106.116 37.0666C105.708 37.0666 105.391 37.1911 105.164 37.4402C104.937 37.6816 104.805 37.9609 104.767 38.2778H107.466Z" fill="#0077B7"/>
<path d="M113.032 41.6623C112.344 41.6623 111.78 41.3831 111.342 40.8247V43.6092H109.901V36.0592H111.342V36.7497C111.773 36.1988 112.336 35.9234 113.032 35.9234C113.75 35.9234 114.332 36.1799 114.778 36.6931C115.232 37.1987 115.459 37.8967 115.459 38.7872C115.459 39.6776 115.232 40.3794 114.778 40.8926C114.332 41.4057 113.75 41.6623 113.032 41.6623ZM112.578 40.3832C112.994 40.3832 113.327 40.2361 113.576 39.9418C113.833 39.6474 113.962 39.2626 113.962 38.7872C113.962 38.3193 113.833 37.9382 113.576 37.6439C113.327 37.3496 112.994 37.2025 112.578 37.2025C112.344 37.2025 112.109 37.2628 111.875 37.3836C111.641 37.5043 111.463 37.6515 111.342 37.825V39.7606C111.463 39.9342 111.641 40.0814 111.875 40.2021C112.117 40.3228 112.351 40.3832 112.578 40.3832Z" fill="#0077B7"/>
<path d="M117.897 41.5265H116.514V36.0592H117.954V39.3645L120.211 36.0592H121.663V41.5265H120.222V38.0967L117.897 41.5265Z" fill="#0077B7"/>
<path d="M124.544 41.5265H122.911L124.181 39.5456C123.841 39.4626 123.554 39.2739 123.319 38.9796C123.085 38.6853 122.968 38.308 122.968 37.8477C122.968 37.3421 123.138 36.9195 123.478 36.5799C123.818 36.2328 124.28 36.0592 124.862 36.0592H128.185V41.5265H126.744V39.6474H125.622L124.544 41.5265ZM125.089 38.4476H126.744V37.2704H125.089C124.892 37.2704 124.733 37.3232 124.612 37.4288C124.491 37.5345 124.431 37.6741 124.431 37.8477C124.431 38.0288 124.487 38.1759 124.601 38.2891C124.722 38.3948 124.884 38.4476 125.089 38.4476Z" fill="#0077B7"/>
</svg>
